<svg width="20" height="18" viewBox="0 0 20 18" fill="none" xmlns="http://www.w3.org/2000/svg">
<path d="M0 1.99509C0 0.89323 0.9918 0 2.21677 0H17.7832C19.0076 0 20 0.89262 20 1.99509V16.0049C20 17.1068 19.0082 18 17.7832 18H2.21677C0.992478 18 0 17.1074 0 16.0049V1.99509ZM10 5C10.6137 5 11.1111 5.44772 11.1111 6C11.1111 6.55228 10.6137 7 10 7C9.38633 7 8.88889 6.55228 8.88889 6C8.88889 5.44772 9.38633 5 10 5ZM10 9C11.841 9 13.3333 7.6569 13.3333 6C13.3333 4.34315 11.841 3 10 3C8.159 3 6.66667 4.34315 6.66667 6C6.66667 7.6569 8.159 9 10 9ZM10 12C11.2273 12 12.2222 12.8954 12.2222 14H14.4444C14.4444 11.7909 12.4546 10 10 10C7.5454 10 5.55556 11.7909 5.55556 14H7.77778C7.77778 12.8954 8.77267 12 10 12Z" fill="#749AB6"/>
</svg>
