<svg width="20" height="19" viewBox="0 0 20 19" fill="none" xmlns="http://www.w3.org/2000/svg">
<path fill-rule="evenodd" clip-rule="evenodd" d="M2.66669 18.3825H17.3333C17.6846 18.3825 18.0325 18.325 18.3569 18.2135C18.6813 18.102 18.9759 17.9385 19.2236 17.7325C19.4714 17.5265 19.6676 17.2821 19.8008 17.0132C19.934 16.7443 20.0017 16.4563 20 16.1657V5.82067C20 5.46959 19.8 5.14608 19.4666 4.93378L10.7778 0.221731C10.5473 0.0778419 10.2665 0 9.97778 0C9.68906 0 9.40821 0.0778419 9.17778 0.221731L0.533365 4.93378C0.200033 5.14608 3.33364e-05 5.46959 3.33364e-05 5.82067V16.1657C-0.00172324 16.4563 0.0659553 16.7443 0.199181 17.0132C0.332406 17.2821 0.528552 17.5265 0.776349 17.7325C1.02415 17.9385 1.31871 18.102 1.64312 18.2135C1.96752 18.325 2.31538 18.3825 2.66669 18.3825ZM7.77778 17.4634V10.1109H12.2222V17.4634H14.4444V9.92706C14.4444 9.01534 13.5467 8.27274 12.4444 8.27274H7.55556C6.45335 8.27274 5.55557 9.01534 5.55557 9.92706V17.4634H7.77778Z" fill="#749AB6"/>
</svg>
