<svg width="44" height="43" viewBox="0 0 44 43" fill="none" xmlns="http://www.w3.org/2000/svg">
<path d="M18.5263 20.8485C23.6442 20.8485 27.7895 16.1836 27.7895 10.4242C27.7895 4.66485 23.6442 0 18.5263 0C13.4084 0 9.26316 4.66485 9.26316 10.4242C9.26316 16.1836 13.4084 20.8485 18.5263 20.8485ZM18.5263 5.21212C21.0737 5.21212 23.1579 7.55758 23.1579 10.4242C23.1579 13.2909 21.0737 15.6364 18.5263 15.6364C15.9789 15.6364 13.8947 13.2909 13.8947 10.4242C13.8947 7.55758 15.9789 5.21212 18.5263 5.21212ZM4.63158 36.4848C5.09474 34.843 10.5832 32.1067 16.1179 31.4291L20.8421 26.217C19.9389 26.1127 19.2674 26.0606 18.5263 26.0606C12.3432 26.0606 0 29.5527 0 36.4848V41.697H20.8421L16.2105 36.4848H4.63158ZM40.7579 22.1515L28.8779 35.6248L24.0842 30.2042L20.8421 33.8788L28.8779 43L44 25.8261L40.7579 22.1515Z" fill="#749AB6"/>
</svg>
