<svg width="211" height="211" viewBox="0 0 211 211" fill="none" xmlns="http://www.w3.org/2000/svg">
<path d="M35.1693 105.499C35.1693 66.6546 66.6586 35.1654 105.503 35.1654C144.347 35.1654 175.836 66.6546 175.836 105.499C175.836 144.343 144.347 175.832 105.503 175.832C66.6586 175.832 35.1693 144.343 35.1693 105.499ZM105.503 17.582C56.9475 17.582 17.5859 56.9436 17.5859 105.499C17.5859 154.053 56.9475 193.415 105.503 193.415C154.057 193.415 193.419 154.053 193.419 105.499C193.419 56.9436 154.057 17.582 105.503 17.582ZM153.48 83.1425L141.046 70.7091L96.7109 115.045L72.1568 90.4904L59.7234 102.924L96.7109 139.911L153.48 83.1425Z" fill="#749AB6"/>
</svg>
