<svg width="44" height="43" viewBox="0 0 44 43" fill="none" xmlns="http://www.w3.org/2000/svg">
<path d="M30.0488 4.3C30.0488 1.9135 31.959 0 34.3415 0C36.7239 0 38.6341 1.9135 38.6341 4.3C38.6341 6.6865 36.7239 8.6 34.3415 8.6C31.959 8.6 30.0488 6.6865 30.0488 4.3ZM38.6341 43V30.1H44L38.5483 13.6955C37.9473 11.9325 36.3161 10.75 34.4702 10.75H34.2127C32.3668 10.75 30.7141 11.9325 30.1346 13.6955L28.2888 19.2425C30.6068 20.5325 32.1951 22.962 32.1951 25.8V43H38.6341ZM22.5366 20.425C24.318 20.425 25.7561 18.9845 25.7561 17.2C25.7561 15.4155 24.318 13.975 22.5366 13.975C20.7551 13.975 19.3171 15.4155 19.3171 17.2C19.3171 18.9845 20.7551 20.425 22.5366 20.425ZM7.5122 8.6C9.89463 8.6 11.8049 6.6865 11.8049 4.3C11.8049 1.9135 9.89463 0 7.5122 0C5.12976 0 3.21951 1.9135 3.21951 4.3C3.21951 6.6865 5.12976 8.6 7.5122 8.6ZM11.8049 43V27.95H15.0244V15.05C15.0244 12.685 13.0927 10.75 10.7317 10.75H4.29268C1.93171 10.75 0 12.685 0 15.05V27.95H3.21951V43H11.8049ZM25.7561 43V34.4H27.9024V25.8C27.9024 24.037 26.4429 22.575 24.6829 22.575H20.3902C18.6302 22.575 17.1707 24.037 17.1707 25.8V34.4H19.3171V43H25.7561Z" fill="#749AB6"/>
</svg>
