<svg width="22" height="20" viewBox="0 0 22 20" fill="none" xmlns="http://www.w3.org/2000/svg">
<path d="M13.1218 8.48067C12.7313 8.09007 12.0981 8.09007 11.7076 8.48067L11.0005 9.18777C10.2194 9.96877 8.95308 9.96877 8.17203 9.18777C7.39098 8.40667 7.39098 7.14034 8.17203 6.35929L13.8027 0.727145C15.9066 0.251195 18.2013 0.832215 19.8393 2.47022C22.2587 4.88958 22.3721 8.74166 20.1797 11.2954L18.0715 13.4304L13.1218 8.48067ZM2.16162 2.47022C4.33501 0.296825 7.6646 -0.0157048 10.1705 1.53263L6.75781 4.94509C5.19572 6.50719 5.19572 9.03986 6.75781 10.602C8.27258 12.1167 10.7 12.1626 12.27 10.7397L12.4147 10.602L16.6573 14.8446L12.4147 19.0873C11.6336 19.8683 10.3673 19.8683 9.58629 19.0873L2.16162 11.6626C-0.37679 9.12417 -0.37679 5.00862 2.16162 2.47022Z" fill="#749AB6"/>
</svg>
