<svg width="32" height="25" viewBox="0 0 32 25" fill="none" xmlns="http://www.w3.org/2000/svg">
<path d="M0.959635 5.625C0.959635 8.66257 3.79516 11.125 7.29297 11.125C10.7908 11.125 13.6263 8.66257 13.6263 5.625C13.6263 2.58743 10.7908 0.125 7.29297 0.125C3.79516 0.125 0.959635 2.58743 0.959635 5.625ZM0.167969 24.875V18.6875C0.167969 15.2702 3.35794 12.5 7.29297 12.5C11.228 12.5 14.418 15.2702 14.418 18.6875V24.875H0.167969ZM24.7096 11.125C21.2119 11.125 18.3763 8.66257 18.3763 5.625C18.3763 2.58743 21.2119 0.125 24.7096 0.125C28.2074 0.125 31.043 2.58743 31.043 5.625C31.043 8.66257 28.2074 11.125 24.7096 11.125ZM17.5846 24.875V18.6875C17.5846 15.2702 20.7746 12.5 24.7096 12.5C28.6447 12.5 31.8346 15.2702 31.8346 18.6875V24.875H17.5846Z" fill="#FCB814"/>
</svg>
