<svg width="15" height="21" viewBox="0 0 15 21" fill="none" xmlns="http://www.w3.org/2000/svg">
<path d="M2.41841 2.14711L2.08175 18.1436L12.0795 18.354L12.4162 2.35752L2.41841 2.14711ZM1.46072 0.12651L13.4581 0.379008C14.0102 0.390629 14.4484 0.84767 14.4368 1.39983L14.0581 19.3958C14.0464 19.948 13.5894 20.3862 13.0372 20.3746L1.03989 20.1221C0.487729 20.1105 0.0495282 19.6534 0.0611494 19.1013L0.439896 1.10525C0.451517 0.55309 0.908558 0.114889 1.46072 0.12651ZM7.14377 15.2494C7.69594 15.2611 8.13412 15.7181 8.1225 16.2703C8.11088 16.8224 7.65386 17.2606 7.10168 17.249C6.54951 17.2374 6.11132 16.7804 6.12295 16.2282C6.13457 15.676 6.59159 15.2378 7.14377 15.2494Z" fill="#6B7280"/>
</svg>
